STARTFONT 2.1
FONT -Fondu-Espy Sans-Medium-R-Normal--12-120-75-75-P-65-MacRoman-1
SIZE 12 75 75
FONTBOUNDINGBOX 13 15 -1 -3
COMMENT Created by Fondu from a mac NFNT/FONT resource
STARTPROPERTIES 17
FOUNDRY "Fondu"
FAMILY_NAME "Espy Sans"
WEIGHT_NAME "Medium"
SLANT "R"
SETWIDTH_NAME "Normal"
ADD_STYLE_NAME ""
PIXEL_SIZE 12
POINT_SIZE 120
RESOLUTION_X 75
RESOLUTION_Y 75
SPACING "P"
AVERAGE_WIDTH 65
CHARSET_REGISTRY "MacRoman"
CHARSET_ENCODING "1"
FONT_ASCENT 12
FONT_DESCENT 3
FACE_NAME "Espy Sans 12"
ENDPROPERTIES
CHARS 224
STARTCHAR space
ENCODING 32
SWIDTH 250 0
DWIDTH 3 0
BBX 0 0 -1 -3
BITMAP
ENDCHAR
STARTCHAR exclam
ENCODING 33
SWIDTH 333 0
DWIDTH 4 0
BBX 1 9 1 0
BITMAP
80
80
80
80
80
80
00
80
80
ENDCHAR
STARTCHAR quotedbl
ENCODING 34
SWIDTH 333 0
DWIDTH 4 0
BBX 3 3 0 7
BITMAP
A0
A0
A0
ENDCHAR
STARTCHAR numbersign
ENCODING 35
SWIDTH 750 0
DWIDTH 9 0
BBX 8 9 0 0
BITMAP
12
12
7F
24
24
24
FE
48
48
ENDCHAR
STARTCHAR dollar
ENCODING 36
SWIDTH 500 0
DWIDTH 6 0
BBX 5 11 0 -1
BITMAP
20
78
A0
A0
A0
70
28
28
28
F0
20
ENDCHAR
STARTCHAR percent
ENCODING 37
SWIDTH 750 0
DWIDTH 9 0
BBX 8 9 0 0
BITMAP
62
92
94
68
18
16
29
49
46
ENDCHAR
STARTCHAR ampersand
ENCODING 38
SWIDTH 750 0
DWIDTH 9 0
BBX 8 9 0 0
BITMAP
38
44
48
30
31
4A
84
86
79
ENDCHAR
STARTCHAR quotesingle
ENCODING 39
SWIDTH 166 0
DWIDTH 2 0
BBX 1 3 0 7
BITMAP
80
80
80
ENDCHAR
STARTCHAR parenleft
ENCODING 40
SWIDTH 333 0
DWIDTH 4 0
BBX 3 12 0 -2
BITMAP
20
40
40
80
80
80
80
80
80
40
40
20
ENDCHAR
STARTCHAR parenright
ENCODING 41
SWIDTH 333 0
DWIDTH 4 0
BBX 3 12 0 -2
BITMAP
80
40
40
20
20
20
20
20
20
40
40
80
ENDCHAR
STARTCHAR asterisk
ENCODING 42
SWIDTH 500 0
DWIDTH 6 0
BBX 5 5 0 5
BITMAP
50
20
F8
20
50
ENDCHAR
STARTCHAR plus
ENCODING 43
SWIDTH 500 0
DWIDTH 6 0
BBX 5 5 0 2
BITMAP
20
20
F8
20
20
ENDCHAR
STARTCHAR comma
ENCODING 44
SWIDTH 333 0
DWIDTH 4 0
BBX 2 3 0 -1
BITMAP
40
40
80
ENDCHAR
STARTCHAR hyphen
ENCODING 45
SWIDTH 416 0
DWIDTH 5 0
BBX 4 1 0 4
BITMAP
F0
ENDCHAR
STARTCHAR period
ENCODING 46
SWIDTH 333 0
DWIDTH 4 0
BBX 1 2 1 0
BITMAP
80
80
ENDCHAR
STARTCHAR slash
ENCODING 47
SWIDTH 416 0
DWIDTH 5 0
BBX 5 10 0 -1
BITMAP
08
08
10
10
20
20
40
40
80
80
ENDCHAR
STARTCHAR zero
ENCODING 48
SWIDTH 583 0
DWIDTH 7 0
BBX 6 9 0 0
BITMAP
78
84
84
84
84
84
84
84
78
ENDCHAR
STARTCHAR one
ENCODING 49
SWIDTH 583 0
DWIDTH 7 0
BBX 3 9 1 0
BITMAP
20
E0
20
20
20
20
20
20
20
ENDCHAR
STARTCHAR two
ENCODING 50
SWIDTH 583 0
DWIDTH 7 0
BBX 6 9 0 0
BITMAP
78
84
04
08
10
20
40
80
FC
ENDCHAR
STARTCHAR three
ENCODING 51
SWIDTH 583 0
DWIDTH 7 0
BBX 6 9 0 0
BITMAP
78
84
04
04
38
04
04
84
78
ENDCHAR
STARTCHAR four
ENCODING 52
SWIDTH 583 0
DWIDTH 7 0
BBX 6 9 0 0
BITMAP
08
18
28
48
88
FC
08
08
08
ENDCHAR
STARTCHAR five
ENCODING 53
SWIDTH 583 0
DWIDTH 7 0
BBX 6 9 0 0
BITMAP
F8
80
80
F8
04
04
04
04
F8
ENDCHAR
STARTCHAR six
ENCODING 54
SWIDTH 583 0
DWIDTH 7 0
BBX 6 9 0 0
BITMAP
38
40
80
F8
84
84
84
84
78
ENDCHAR
STARTCHAR seven
ENCODING 55
SWIDTH 583 0
DWIDTH 7 0
BBX 6 9 0 0
BITMAP
FC
04
08
08
10
10
20
20
20
ENDCHAR
STARTCHAR eight
ENCODING 56
SWIDTH 583 0
DWIDTH 7 0
BBX 6 9 0 0
BITMAP
78
84
84
84
78
84
84
84
78
ENDCHAR
STARTCHAR nine
ENCODING 57
SWIDTH 583 0
DWIDTH 7 0
BBX 6 9 0 0
BITMAP
78
84
84
84
84
7C
04
08
70
ENDCHAR
STARTCHAR colon
ENCODING 58
SWIDTH 333 0
DWIDTH 4 0
BBX 1 7 1 0
BITMAP
80
80
00
00
00
80
80
ENDCHAR
STARTCHAR semicolon
ENCODING 59
SWIDTH 333 0
DWIDTH 4 0
BBX 2 8 0 -1
BITMAP
40
40
00
00
00
40
40
80
ENDCHAR
STARTCHAR less
ENCODING 60
SWIDTH 500 0
DWIDTH 6 0
BBX 5 5 0 2
BITMAP
08
30
C0
30
08
ENDCHAR
STARTCHAR equal
ENCODING 61
SWIDTH 583 0
DWIDTH 7 0
BBX 6 3 0 3
BITMAP
FC
00
FC
ENDCHAR
STARTCHAR greater
ENCODING 62
SWIDTH 500 0
DWIDTH 6 0
BBX 5 5 0 2
BITMAP
80
60
18
60
80
ENDCHAR
STARTCHAR question
ENCODING 63
SWIDTH 416 0
DWIDTH 5 0
BBX 4 9 0 0
BITMAP
E0
10
10
20
40
40
00
40
40
ENDCHAR
STARTCHAR at
ENCODING 64
SWIDTH 750 0
DWIDTH 9 0
BBX 8 8 0 -1
BITMAP
3C
42
99
A5
AD
92
40
3C
ENDCHAR
STARTCHAR A
ENCODING 65
SWIDTH 666 0
DWIDTH 8 0
BBX 9 9 -1 0
BITMAP
0800
0800
1400
1400
2200
3E00
4100
4100
8080
ENDCHAR
STARTCHAR B
ENCODING 66
SWIDTH 583 0
DWIDTH 7 0
BBX 6 9 0 0
BITMAP
F0
88
88
90
F8
84
84
84
F8
ENDCHAR
STARTCHAR C
ENCODING 67
SWIDTH 583 0
DWIDTH 7 0
BBX 6 9 0 0
BITMAP
3C
40
80
80
80
80
80
40
3C
ENDCHAR
STARTCHAR D
ENCODING 68
SWIDTH 666 0
DWIDTH 8 0
BBX 7 9 0 0
BITMAP
F8
84
82
82
82
82
82
84
F8
ENDCHAR
STARTCHAR E
ENCODING 69
SWIDTH 500 0
DWIDTH 6 0
BBX 5 9 0 0
BITMAP
F8
80
80
80
F0
80
80
80
F8
ENDCHAR
STARTCHAR F
ENCODING 70
SWIDTH 500 0
DWIDTH 6 0
BBX 5 9 0 0
BITMAP
F8
80
80
80
F0
80
80
80
80
ENDCHAR
STARTCHAR G
ENCODING 71
SWIDTH 750 0
DWIDTH 9 0
BBX 8 9 0 0
BITMAP
3E
40
80
80
87
81
81
41
3E
ENDCHAR
STARTCHAR H
ENCODING 72
SWIDTH 666 0
DWIDTH 8 0
BBX 7 9 0 0
BITMAP
82
82
82
82
FE
82
82
82
82
ENDCHAR
STARTCHAR I
ENCODING 73
SWIDTH 166 0
DWIDTH 2 0
BBX 1 9 0 0
BITMAP
80
80
80
80
80
80
80
80
80
ENDCHAR
STARTCHAR J
ENCODING 74
SWIDTH 416 0
DWIDTH 5 0
BBX 4 9 0 0
BITMAP
10
10
10
10
10
10
10
10
E0
ENDCHAR
STARTCHAR K
ENCODING 75
SWIDTH 583 0
DWIDTH 7 0
BBX 6 9 0 0
BITMAP
84
88
90
A0
C0
A0
90
88
84
ENDCHAR
STARTCHAR L
ENCODING 76
SWIDTH 583 0
DWIDTH 7 0
BBX 6 9 0 0
BITMAP
80
80
80
80
80
80
80
80
FC
ENDCHAR
STARTCHAR M
ENCODING 77
SWIDTH 833 0
DWIDTH 10 0
BBX 9 9 0 0
BITMAP
C180
C180
A280
A280
9480
9480
9480
8880
8880
ENDCHAR
STARTCHAR N
ENCODING 78
SWIDTH 666 0
DWIDTH 8 0
BBX 7 9 0 0
BITMAP
C2
C2
A2
92
92
8A
86
86
82
ENDCHAR
STARTCHAR O
ENCODING 79
SWIDTH 750 0
DWIDTH 9 0
BBX 8 9 0 0
BITMAP
3C
42
81
81
81
81
81
42
3C
ENDCHAR
STARTCHAR P
ENCODING 80
SWIDTH 583 0
DWIDTH 7 0
BBX 6 9 0 0
BITMAP
F0
88
84
84
88
F0
80
80
80
ENDCHAR
STARTCHAR Q
ENCODING 81
SWIDTH 750 0
DWIDTH 9 0
BBX 8 11 0 -2
BITMAP
3C
42
81
81
81
81
81
42
3C
04
03
ENDCHAR
STARTCHAR R
ENCODING 82
SWIDTH 583 0
DWIDTH 7 0
BBX 6 9 0 0
BITMAP
F0
88
84
84
88
F0
90
88
84
ENDCHAR
STARTCHAR S
ENCODING 83
SWIDTH 583 0
DWIDTH 7 0
BBX 6 9 0 0
BITMAP
7C
80
80
40
30
08
04
04
F8
ENDCHAR
STARTCHAR T
ENCODING 84
SWIDTH 666 0
DWIDTH 8 0
BBX 7 9 0 0
BITMAP
FE
10
10
10
10
10
10
10
10
ENDCHAR
STARTCHAR U
ENCODING 85
SWIDTH 666 0
DWIDTH 8 0
BBX 7 9 0 0
BITMAP
82
82
82
82
82
82
82
44
38
ENDCHAR
STARTCHAR V
ENCODING 86
SWIDTH 666 0
DWIDTH 8 0
BBX 7 9 0 0
BITMAP
82
82
82
44
44
28
28
10
10
ENDCHAR
STARTCHAR W
ENCODING 87
SWIDTH 833 0
DWIDTH 10 0
BBX 9 9 0 0
BITMAP
8880
8880
8880
5500
5500
5500
2200
2200
2200
ENDCHAR
STARTCHAR X
ENCODING 88
SWIDTH 666 0
DWIDTH 8 0
BBX 7 9 0 0
BITMAP
82
82
44
28
10
28
44
82
82
ENDCHAR
STARTCHAR Y
ENCODING 89
SWIDTH 666 0
DWIDTH 8 0
BBX 7 9 0 0
BITMAP
82
82
44
28
28
10
10
10
10
ENDCHAR
STARTCHAR Z
ENCODING 90
SWIDTH 583 0
DWIDTH 7 0
BBX 6 9 0 0
BITMAP
FC
04
08
10
10
20
40
80
FC
ENDCHAR
STARTCHAR bracketleft
ENCODING 91
SWIDTH 250 0
DWIDTH 3 0
BBX 2 12 0 -2
BITMAP
C0
80
80
80
80
80
80
80
80
80
80
C0
ENDCHAR
STARTCHAR backslash
ENCODING 92
SWIDTH 416 0
DWIDTH 5 0
BBX 5 10 0 -1
BITMAP
80
80
40
40
20
20
10
10
08
08
ENDCHAR
STARTCHAR bracketright
ENCODING 93
SWIDTH 250 0
DWIDTH 3 0
BBX 2 12 0 -2
BITMAP
C0
40
40
40
40
40
40
40
40
40
40
C0
ENDCHAR
STARTCHAR asciicircum
ENCODING 94
SWIDTH 500 0
DWIDTH 6 0
BBX 5 6 0 3
BITMAP
20
20
50
50
88
88
ENDCHAR
STARTCHAR underscore
ENCODING 95
SWIDTH 416 0
DWIDTH 5 0
BBX 5 1 0 -1
BITMAP
F8
ENDCHAR
STARTCHAR grave
ENCODING 96
SWIDTH 333 0
DWIDTH 4 0
BBX 3 2 0 8
BITMAP
C0
20
ENDCHAR
STARTCHAR a
ENCODING 97
SWIDTH 583 0
DWIDTH 7 0
BBX 6 7 0 0
BITMAP
78
04
04
7C
84
8C
74
ENDCHAR
STARTCHAR b
ENCODING 98
SWIDTH 583 0
DWIDTH 7 0
BBX 6 9 0 0
BITMAP
80
80
B8
C4
84
84
84
88
F0
ENDCHAR
STARTCHAR c
ENCODING 99
SWIDTH 500 0
DWIDTH 6 0
BBX 5 7 0 0
BITMAP
38
40
80
80
80
40
38
ENDCHAR
STARTCHAR d
ENCODING 100
SWIDTH 583 0
DWIDTH 7 0
BBX 6 9 0 0
BITMAP
04
04
3C
44
84
84
84
8C
74
ENDCHAR
STARTCHAR e
ENCODING 101
SWIDTH 583 0
DWIDTH 7 0
BBX 6 7 0 0
BITMAP
38
44
84
FC
80
40
3C
ENDCHAR
STARTCHAR f
ENCODING 102
SWIDTH 416 0
DWIDTH 5 0
BBX 5 9 0 0
BITMAP
38
40
F0
40
40
40
40
40
40
ENDCHAR
STARTCHAR g
ENCODING 103
SWIDTH 583 0
DWIDTH 7 0
BBX 6 10 0 -3
BITMAP
3C
44
84
84
84
8C
74
04
08
70
ENDCHAR
STARTCHAR h
ENCODING 104
SWIDTH 583 0
DWIDTH 7 0
BBX 6 9 0 0
BITMAP
80
80
B8
C4
84
84
84
84
84
ENDCHAR
STARTCHAR i
ENCODING 105
SWIDTH 166 0
DWIDTH 2 0
BBX 1 9 0 0
BITMAP
80
00
80
80
80
80
80
80
80
ENDCHAR
STARTCHAR j
ENCODING 106
SWIDTH 250 0
DWIDTH 3 0
BBX 3 11 -1 -2
BITMAP
20
00
20
20
20
20
20
20
20
20
C0
ENDCHAR
STARTCHAR k
ENCODING 107
SWIDTH 500 0
DWIDTH 6 0
BBX 5 9 0 0
BITMAP
80
80
88
90
A0
E0
90
88
88
ENDCHAR
STARTCHAR l
ENCODING 108
SWIDTH 166 0
DWIDTH 2 0
BBX 1 9 0 0
BITMAP
80
80
80
80
80
80
80
80
80
ENDCHAR
STARTCHAR m
ENCODING 109
SWIDTH 1000 0
DWIDTH 12 0
BBX 11 7 0 0
BITMAP
B9C0
C620
8420
8420
8420
8420
8420
ENDCHAR
STARTCHAR n
ENCODING 110
SWIDTH 583 0
DWIDTH 7 0
BBX 6 7 0 0
BITMAP
B8
C4
84
84
84
84
84
ENDCHAR
STARTCHAR o
ENCODING 111
SWIDTH 666 0
DWIDTH 8 0
BBX 7 7 0 0
BITMAP
38
44
82
82
82
44
38
ENDCHAR
STARTCHAR p
ENCODING 112
SWIDTH 583 0
DWIDTH 7 0
BBX 6 10 0 -3
BITMAP
B8
C4
84
84
84
88
F0
80
80
80
ENDCHAR
STARTCHAR q
ENCODING 113
SWIDTH 583 0
DWIDTH 7 0
BBX 6 10 0 -3
BITMAP
3C
44
84
84
84
8C
74
04
04
04
ENDCHAR
STARTCHAR r
ENCODING 114
SWIDTH 416 0
DWIDTH 5 0
BBX 4 7 0 0
BITMAP
B0
C0
80
80
80
80
80
ENDCHAR
STARTCHAR s
ENCODING 115
SWIDTH 500 0
DWIDTH 6 0
BBX 5 7 0 0
BITMAP
78
80
80
70
08
08
F0
ENDCHAR
STARTCHAR t
ENCODING 116
SWIDTH 500 0
DWIDTH 6 0
BBX 5 9 0 0
BITMAP
40
40
F8
40
40
40
40
40
38
ENDCHAR
STARTCHAR u
ENCODING 117
SWIDTH 583 0
DWIDTH 7 0
BBX 6 7 0 0
BITMAP
84
84
84
84
84
8C
74
ENDCHAR
STARTCHAR v
ENCODING 118
SWIDTH 583 0
DWIDTH 7 0
BBX 6 7 0 0
BITMAP
84
84
48
48
50
30
20
ENDCHAR
STARTCHAR w
ENCODING 119
SWIDTH 833 0
DWIDTH 10 0
BBX 9 7 0 0
BITMAP
8880
8880
8880
5500
5500
2200
2200
ENDCHAR
STARTCHAR x
ENCODING 120
SWIDTH 583 0
DWIDTH 7 0
BBX 6 7 0 0
BITMAP
84
48
30
30
48
84
84
ENDCHAR
STARTCHAR y
ENCODING 121
SWIDTH 583 0
DWIDTH 7 0
BBX 7 10 -1 -3
BITMAP
42
42
24
24
28
18
10
10
20
C0
ENDCHAR
STARTCHAR z
ENCODING 122
SWIDTH 500 0
DWIDTH 6 0
BBX 5 7 0 0
BITMAP
F8
08
10
20
40
80
F8
ENDCHAR
STARTCHAR braceleft
ENCODING 123
SWIDTH 333 0
DWIDTH 4 0
BBX 3 12 0 -2
BITMAP
20
40
40
40
40
80
40
40
40
40
40
20
ENDCHAR
STARTCHAR bar
ENCODING 124
SWIDTH 333 0
DWIDTH 4 0
BBX 1 12 1 -2
BITMAP
80
80
80
80
80
80
80
80
80
80
80
80
ENDCHAR
STARTCHAR braceright
ENCODING 125
SWIDTH 333 0
DWIDTH 4 0
BBX 3 12 0 -2
BITMAP
80
40
40
40
40
20
40
40
40
40
40
80
ENDCHAR
STARTCHAR asciitilde
ENCODING 126
SWIDTH 666 0
DWIDTH 8 0
BBX 7 3 0 4
BITMAP
62
92
8C
ENDCHAR
STARTCHAR char007f
ENCODING 127
SWIDTH 0 0
DWIDTH 0 0
BBX 0 0 -1 -3
BITMAP
ENDCHAR
STARTCHAR Adieresis
ENCODING 128
SWIDTH 666 0
DWIDTH 8 0
BBX 9 11 -1 0
BITMAP
1400
0000
0800
0800
1400
1400
2200
3E00
4100
4100
8080
ENDCHAR
STARTCHAR Aring
ENCODING 129
SWIDTH 666 0
DWIDTH 8 0
BBX 9 12 -1 0
BITMAP
0C00
1200
0C00
0800
0800
1400
1400
2200
3E00
4100
4100
8080
ENDCHAR
STARTCHAR Ccedilla
ENCODING 130
SWIDTH 583 0
DWIDTH 7 0
BBX 6 11 0 -2
BITMAP
3C
40
80
80
80
80
80
40
3C
10
20
ENDCHAR
STARTCHAR Eacute
ENCODING 131
SWIDTH 500 0
DWIDTH 6 0
BBX 5 12 0 0
BITMAP
30
40
00
F8
80
80
80
F0
80
80
80
F8
ENDCHAR
STARTCHAR Ntilde
ENCODING 132
SWIDTH 666 0
DWIDTH 8 0
BBX 7 12 0 0
BITMAP
34
58
00
C2
C2
A2
92
92
8A
86
86
82
ENDCHAR
STARTCHAR Odieresis
ENCODING 133
SWIDTH 750 0
DWIDTH 9 0
BBX 8 11 0 0
BITMAP
24
00
3C
42
81
81
81
81
81
42
3C
ENDCHAR
STARTCHAR Udieresis
ENCODING 134
SWIDTH 666 0
DWIDTH 8 0
BBX 7 11 0 0
BITMAP
24
00
82
82
82
82
82
82
82
44
38
ENDCHAR
STARTCHAR aacute
ENCODING 135
SWIDTH 583 0
DWIDTH 7 0
BBX 6 10 0 0
BITMAP
18
20
00
78
04
04
7C
84
8C
74
ENDCHAR
STARTCHAR agrave
ENCODING 136
SWIDTH 583 0
DWIDTH 7 0
BBX 6 10 0 0
BITMAP
60
10
00
78
04
04
7C
84
8C
74
ENDCHAR
STARTCHAR acircumflex
ENCODING 137
SWIDTH 583 0
DWIDTH 7 0
BBX 6 10 0 0
BITMAP
30
48
00
78
04
04
7C
84
8C
74
ENDCHAR
STARTCHAR adieresis
ENCODING 138
SWIDTH 583 0
DWIDTH 7 0
BBX 6 9 0 0
BITMAP
28
00
78
04
04
7C
84
8C
74
ENDCHAR
STARTCHAR atilde
ENCODING 139
SWIDTH 583 0
DWIDTH 7 0
BBX 6 10 0 0
BITMAP
34
58
00
78
04
04
7C
84
8C
74
ENDCHAR
STARTCHAR aring
ENCODING 140
SWIDTH 583 0
DWIDTH 7 0
BBX 6 10 0 0
BITMAP
30
48
30
78
04
04
7C
84
8C
74
ENDCHAR
STARTCHAR ccedilla
ENCODING 141
SWIDTH 500 0
DWIDTH 6 0
BBX 5 9 0 -2
BITMAP
38
40
80
80
80
40
38
20
40
ENDCHAR
STARTCHAR eacute
ENCODING 142
SWIDTH 583 0
DWIDTH 7 0
BBX 6 10 0 0
BITMAP
18
20
00
38
44
84
FC
80
40
3C
ENDCHAR
STARTCHAR egrave
ENCODING 143
SWIDTH 583 0
DWIDTH 7 0
BBX 6 10 0 0
BITMAP
60
10
00
38
44
84
FC
80
40
3C
ENDCHAR
STARTCHAR ecircumflex
ENCODING 144
SWIDTH 583 0
DWIDTH 7 0
BBX 6 10 0 0
BITMAP
30
48
00
38
44
84
FC
80
40
3C
ENDCHAR
STARTCHAR edieresis
ENCODING 145
SWIDTH 583 0
DWIDTH 7 0
BBX 6 9 0 0
BITMAP
28
00
38
44
84
FC
80
40
3C
ENDCHAR
STARTCHAR iacute
ENCODING 146
SWIDTH 166 0
DWIDTH 2 0
BBX 3 10 -1 0
BITMAP
60
80
00
40
40
40
40
40
40
40
ENDCHAR
STARTCHAR igrave
ENCODING 147
SWIDTH 166 0
DWIDTH 2 0
BBX 3 10 -1 0
BITMAP
C0
20
00
40
40
40
40
40
40
40
ENDCHAR
STARTCHAR icircumflex
ENCODING 148
SWIDTH 166 0
DWIDTH 2 0
BBX 4 10 -1 0
BITMAP
60
90
00
40
40
40
40
40
40
40
ENDCHAR
STARTCHAR idieresis
ENCODING 149
SWIDTH 166 0
DWIDTH 2 0
BBX 3 9 -1 0
BITMAP
A0
00
40
40
40
40
40
40
40
ENDCHAR
STARTCHAR ntilde
ENCODING 150
SWIDTH 583 0
DWIDTH 7 0
BBX 6 10 0 0
BITMAP
34
58
00
B8
C4
84
84
84
84
84
ENDCHAR
STARTCHAR oacute
ENCODING 151
SWIDTH 666 0
DWIDTH 8 0
BBX 7 10 0 0
BITMAP
18
20
00
38
44
82
82
82
44
38
ENDCHAR
STARTCHAR ograve
ENCODING 152
SWIDTH 666 0
DWIDTH 8 0
BBX 7 10 0 0
BITMAP
30
08
00
38
44
82
82
82
44
38
ENDCHAR
STARTCHAR ocircumflex
ENCODING 153
SWIDTH 666 0
DWIDTH 8 0
BBX 7 10 0 0
BITMAP
18
24
00
38
44
82
82
82
44
38
ENDCHAR
STARTCHAR odieresis
ENCODING 154
SWIDTH 666 0
DWIDTH 8 0
BBX 7 9 0 0
BITMAP
28
00
38
44
82
82
82
44
38
ENDCHAR
STARTCHAR otilde
ENCODING 155
SWIDTH 666 0
DWIDTH 8 0
BBX 7 10 0 0
BITMAP
34
58
00
38
44
82
82
82
44
38
ENDCHAR
STARTCHAR uacute
ENCODING 156
SWIDTH 583 0
DWIDTH 7 0
BBX 6 10 0 0
BITMAP
18
20
00
84
84
84
84
84
8C
74
ENDCHAR
STARTCHAR ugrave
ENCODING 157
SWIDTH 583 0
DWIDTH 7 0
BBX 6 10 0 0
BITMAP
60
10
00
84
84
84
84
84
8C
74
ENDCHAR
STARTCHAR ucircumflex
ENCODING 158
SWIDTH 583 0
DWIDTH 7 0
BBX 6 10 0 0
BITMAP
30
48
00
84
84
84
84
84
8C
74
ENDCHAR
STARTCHAR udieresis
ENCODING 159
SWIDTH 583 0
DWIDTH 7 0
BBX 6 9 0 0
BITMAP
28
00
84
84
84
84
84
8C
74
ENDCHAR
STARTCHAR dagger
ENCODING 160
SWIDTH 916 0
DWIDTH 11 0
BBX 10 8 0 0
BITMAP
6180
9240
7F80
1200
1200
7F80
9240
6180
ENDCHAR
STARTCHAR degree
ENCODING 161
SWIDTH 416 0
DWIDTH 5 0
BBX 4 4 0 5
BITMAP
60
90
90
60
ENDCHAR
STARTCHAR cent
ENCODING 162
SWIDTH 500 0
DWIDTH 6 0
BBX 5 8 0 -1
BITMAP
20
78
A0
A0
A0
A0
78
20
ENDCHAR
STARTCHAR sterling
ENCODING 163
SWIDTH 583 0
DWIDTH 7 0
BBX 6 9 0 0
BITMAP
38
40
40
F0
40
40
40
40
FC
ENDCHAR
STARTCHAR section
ENCODING 164
SWIDTH 833 0
DWIDTH 10 0
BBX 9 9 0 0
BITMAP
0800
1C00
1C00
6B00
F780
6B00
1C00
1C00
0800
ENDCHAR
STARTCHAR bullet
ENCODING 165
SWIDTH 583 0
DWIDTH 7 0
BBX 5 5 0 2
BITMAP
70
F8
F8
F8
70
ENDCHAR
STARTCHAR paragraph
ENCODING 166
SWIDTH 500 0
DWIDTH 6 0
BBX 5 9 0 0
BITMAP
78
E8
E8
E8
68
28
28
28
28
ENDCHAR
STARTCHAR germandbls
ENCODING 167
SWIDTH 666 0
DWIDTH 8 0
BBX 7 9 0 0
BITMAP
78
84
84
88
98
84
82
82
BC
ENDCHAR
STARTCHAR registered
ENCODING 168
SWIDTH 666 0
DWIDTH 8 0
BBX 7 8 0 0
BITMAP
38
44
B2
AA
B2
AA
44
38
ENDCHAR
STARTCHAR copyright
ENCODING 169
SWIDTH 666 0
DWIDTH 8 0
BBX 7 8 0 0
BITMAP
38
44
9A
A2
A2
9A
44
38
ENDCHAR
STARTCHAR trademark
ENCODING 170
SWIDTH 833 0
DWIDTH 10 0
BBX 9 4 0 6
BITMAP
E880
4D80
4A80
4A80
ENDCHAR
STARTCHAR acute
ENCODING 171
SWIDTH 333 0
DWIDTH 4 0
BBX 3 2 0 8
BITMAP
60
80
ENDCHAR
STARTCHAR dieresis
ENCODING 172
SWIDTH 416 0
DWIDTH 5 0
BBX 3 1 0 8
BITMAP
A0
ENDCHAR
STARTCHAR notequal
ENCODING 173
SWIDTH 583 0
DWIDTH 7 0
BBX 6 5 0 2
BITMAP
10
FC
20
FC
40
ENDCHAR
STARTCHAR AE
ENCODING 174
SWIDTH 1000 0
DWIDTH 12 0
BBX 11 9 0 0
BITMAP
0FE0
0A00
1200
1200
23C0
7E00
4200
8200
83E0
ENDCHAR
STARTCHAR Oslash
ENCODING 175
SWIDTH 750 0
DWIDTH 9 0
BBX 8 9 0 0
BITMAP
3D
42
85
89
89
91
A1
42
BC
ENDCHAR
STARTCHAR infinity
ENCODING 176
SWIDTH 833 0
DWIDTH 10 0
BBX 9 4 0 2
BITMAP
7300
8C80
9880
6700
ENDCHAR
STARTCHAR plusminus
ENCODING 177
SWIDTH 500 0
DWIDTH 6 0
BBX 5 6 0 1
BITMAP
20
20
F8
20
20
F8
ENDCHAR
STARTCHAR lessequal
ENCODING 178
SWIDTH 500 0
DWIDTH 6 0
BBX 5 7 0 0
BITMAP
08
30
C0
30
08
00
F8
ENDCHAR
STARTCHAR greaterequal
ENCODING 179
SWIDTH 500 0
DWIDTH 6 0
BBX 5 7 0 0
BITMAP
80
60
18
60
80
00
F8
ENDCHAR
STARTCHAR yen
ENCODING 180
SWIDTH 666 0
DWIDTH 8 0
BBX 7 9 0 0
BITMAP
82
82
44
28
FE
10
FE
10
10
ENDCHAR
STARTCHAR mu
ENCODING 181
SWIDTH 583 0
DWIDTH 7 0
BBX 6 10 0 -3
BITMAP
84
84
84
84
84
8C
F4
80
80
80
ENDCHAR
STARTCHAR partialdiff
ENCODING 182
SWIDTH 583 0
DWIDTH 7 0
BBX 6 9 0 0
BITMAP
30
08
04
7C
84
84
84
84
78
ENDCHAR
STARTCHAR summation
ENCODING 183
SWIDTH 666 0
DWIDTH 8 0
BBX 7 10 0 -1
BITMAP
FE
82
40
20
10
10
20
40
82
FE
ENDCHAR
STARTCHAR product
ENCODING 184
SWIDTH 833 0
DWIDTH 10 0
BBX 9 10 0 -1
BITMAP
FF80
4100
4100
4100
4100
4100
4100
4100
4100
E380
ENDCHAR
STARTCHAR pi
ENCODING 185
SWIDTH 666 0
DWIDTH 8 0
BBX 7 7 0 0
BITMAP
FE
44
44
44
44
46
C4
ENDCHAR
STARTCHAR integral
ENCODING 186
SWIDTH 333 0
DWIDTH 4 0
BBX 3 14 0 -3
BITMAP
20
40
40
40
40
40
40
40
40
40
40
40
40
80
ENDCHAR
STARTCHAR ordfeminine
ENCODING 187
SWIDTH 416 0
DWIDTH 5 0
BBX 4 6 0 3
BITMAP
70
90
B0
50
00
F0
ENDCHAR
STARTCHAR ordmasculine
ENCODING 188
SWIDTH 416 0
DWIDTH 5 0
BBX 4 6 0 3
BITMAP
60
90
90
60
00
F0
ENDCHAR
STARTCHAR Omega
ENCODING 189
SWIDTH 833 0
DWIDTH 10 0
BBX 9 9 0 0
BITMAP
1C00
2200
4100
8080
8080
4100
2200
A280
E380
ENDCHAR
STARTCHAR ae
ENCODING 190
SWIDTH 1000 0
DWIDTH 12 0
BBX 11 7 0 0
BITMAP
79C0
0620
0420
7FE0
8400
8E00
71E0
ENDCHAR
STARTCHAR oslash
ENCODING 191
SWIDTH 666 0
DWIDTH 8 0
BBX 7 7 0 0
BITMAP
3A
44
8A
92
A2
44
B8
ENDCHAR
STARTCHAR questiondown
ENCODING 192
SWIDTH 416 0
DWIDTH 5 0
BBX 4 9 0 -2
BITMAP
20
20
00
20
20
40
80
80
70
ENDCHAR
STARTCHAR exclamdown
ENCODING 193
SWIDTH 250 0
DWIDTH 3 0
BBX 1 9 1 -2
BITMAP
80
80
00
80
80
80
80
80
80
ENDCHAR
STARTCHAR logicalnot
ENCODING 194
SWIDTH 666 0
DWIDTH 8 0
BBX 7 3 0 2
BITMAP
FE
02
02
ENDCHAR
STARTCHAR radical
ENCODING 195
SWIDTH 583 0
DWIDTH 7 0
BBX 6 11 0 -1
BITMAP
04
04
08
08
08
D0
50
50
20
20
20
ENDCHAR
STARTCHAR florin
ENCODING 196
SWIDTH 666 0
DWIDTH 8 0
BBX 8 11 -1 -1
BITMAP
03
04
04
1F
08
08
10
10
20
20
C0
ENDCHAR
STARTCHAR approxequal
ENCODING 197
SWIDTH 583 0
DWIDTH 7 0
BBX 6 5 0 2
BITMAP
64
98
00
64
98
ENDCHAR
STARTCHAR Delta
ENCODING 198
SWIDTH 833 0
DWIDTH 10 0
BBX 9 9 0 0
BITMAP
0800
0800
1400
1400
2200
2200
4100
4100
FF80
ENDCHAR
STARTCHAR guillemotleft
ENCODING 199
SWIDTH 500 0
DWIDTH 6 0
BBX 5 5 0 1
BITMAP
28
50
A0
50
28
ENDCHAR
STARTCHAR guillemotright
ENCODING 200
SWIDTH 500 0
DWIDTH 6 0
BBX 5 5 0 1
BITMAP
A0
50
28
50
A0
ENDCHAR
STARTCHAR ellipsis
ENCODING 201
SWIDTH 833 0
DWIDTH 10 0
BBX 7 2 1 0
BITMAP
92
92
ENDCHAR
STARTCHAR nbspace
ENCODING 202
SWIDTH 250 0
DWIDTH 3 0
BBX 0 0 -1 -3
BITMAP
ENDCHAR
STARTCHAR Agrave
ENCODING 203
SWIDTH 666 0
DWIDTH 8 0
BBX 9 12 -1 0
BITMAP
1800
0400
0000
0800
0800
1400
1400
2200
3E00
4100
4100
8080
ENDCHAR
STARTCHAR Atilde
ENCODING 204
SWIDTH 666 0
DWIDTH 8 0
BBX 9 12 -1 0
BITMAP
1A00
2C00
0000
0800
0800
1400
1400
2200
3E00
4100
4100
8080
ENDCHAR
STARTCHAR Otilde
ENCODING 205
SWIDTH 750 0
DWIDTH 9 0
BBX 8 12 0 0
BITMAP
1A
2C
00
3C
42
81
81
81
81
81
42
3C
ENDCHAR
STARTCHAR OE
ENCODING 206
SWIDTH 916 0
DWIDTH 11 0
BBX 10 9 0 0
BITMAP
3FC0
4400
8400
8400
8780
8400
8400
4400
3FC0
ENDCHAR
STARTCHAR oe
ENCODING 207
SWIDTH 1000 0
DWIDTH 12 0
BBX 11 7 0 0
BITMAP
39C0
4620
8420
87E0
8400
4600
39E0
ENDCHAR
STARTCHAR endash
ENCODING 208
SWIDTH 583 0
DWIDTH 7 0
BBX 6 1 0 4
BITMAP
FC
ENDCHAR
STARTCHAR emdash
ENCODING 209
SWIDTH 916 0
DWIDTH 11 0
BBX 10 1 0 4
BITMAP
FFC0
ENDCHAR
STARTCHAR quotedblleft
ENCODING 210
SWIDTH 416 0
DWIDTH 5 0
BBX 4 3 0 7
BITMAP
50
A0
A0
ENDCHAR
STARTCHAR quotedblright
ENCODING 211
SWIDTH 416 0
DWIDTH 5 0
BBX 4 3 0 7
BITMAP
50
50
A0
ENDCHAR
STARTCHAR quoteleft
ENCODING 212
SWIDTH 250 0
DWIDTH 3 0
BBX 2 3 0 7
BITMAP
40
80
80
ENDCHAR
STARTCHAR quoteright
ENCODING 213
SWIDTH 250 0
DWIDTH 3 0
BBX 2 3 0 7
BITMAP
40
40
80
ENDCHAR
STARTCHAR divide
ENCODING 214
SWIDTH 500 0
DWIDTH 6 0
BBX 5 5 0 2
BITMAP
20
00
F8
00
20
ENDCHAR
STARTCHAR lozenge
ENCODING 215
SWIDTH 666 0
DWIDTH 8 0
BBX 7 11 0 -1
BITMAP
10
10
28
44
44
82
44
44
28
10
10
ENDCHAR
STARTCHAR ydieresis
ENCODING 216
SWIDTH 500 0
DWIDTH 6 0
BBX 7 12 -1 -3
BITMAP
14
00
42
42
24
24
28
18
10
10
20
C0
ENDCHAR
STARTCHAR Ydieresis
ENCODING 217
SWIDTH 666 0
DWIDTH 8 0
BBX 7 11 0 0
BITMAP
28
00
82
82
44
28
28
10
10
10
10
ENDCHAR
STARTCHAR fraction
ENCODING 218
SWIDTH 416 0
DWIDTH 5 0
BBX 5 10 0 -1
BITMAP
08
08
10
10
20
20
40
40
80
80
ENDCHAR
STARTCHAR currency
ENCODING 219
SWIDTH 666 0
DWIDTH 8 0
BBX 7 7 0 0
BITMAP
BA
44
82
82
82
44
BA
ENDCHAR
STARTCHAR guilsinglleft
ENCODING 220
SWIDTH 333 0
DWIDTH 4 0
BBX 3 5 0 1
BITMAP
20
40
80
40
20
ENDCHAR
STARTCHAR guilsinglright
ENCODING 221
SWIDTH 333 0
DWIDTH 4 0
BBX 3 5 0 1
BITMAP
80
40
20
40
80
ENDCHAR
STARTCHAR fi
ENCODING 222
SWIDTH 583 0
DWIDTH 7 0
BBX 6 9 0 0
BITMAP
3C
40
F4
44
44
44
44
44
44
ENDCHAR
STARTCHAR fl
ENCODING 223
SWIDTH 583 0
DWIDTH 7 0
BBX 6 9 0 0
BITMAP
3C
44
F4
44
44
44
44
44
44
ENDCHAR
STARTCHAR daggerdbl
ENCODING 224
SWIDTH 833 0
DWIDTH 10 0
BBX 7 7 1 0
BITMAP
FE
FE
FE
FE
FE
FE
FE
ENDCHAR
STARTCHAR periodcentered
ENCODING 225
SWIDTH 333 0
DWIDTH 4 0
BBX 1 2 1 4
BITMAP
80
80
ENDCHAR
STARTCHAR quotesinglbase
ENCODING 226
SWIDTH 250 0
DWIDTH 3 0
BBX 2 3 0 -1
BITMAP
40
40
80
ENDCHAR
STARTCHAR quotedblbase
ENCODING 227
SWIDTH 416 0
DWIDTH 5 0
BBX 4 3 0 -1
BITMAP
50
50
A0
ENDCHAR
STARTCHAR perthousand
ENCODING 228
SWIDTH 1083 0
DWIDTH 13 0
BBX 12 9 0 0
BITMAP
6200
9200
9400
6800
1800
1660
2990
4990
4660
ENDCHAR
STARTCHAR Acircumflex
ENCODING 229
SWIDTH 666 0
DWIDTH 8 0
BBX 9 12 -1 0
BITMAP
0C00
1200
0000
0800
0800
1400
1400
2200
3E00
4100
4100
8080
ENDCHAR
STARTCHAR Ecircumflex
ENCODING 230
SWIDTH 500 0
DWIDTH 6 0
BBX 5 12 0 0
BITMAP
30
48
00
F8
80
80
80
F0
80
80
80
F8
ENDCHAR
STARTCHAR Aacute
ENCODING 231
SWIDTH 666 0
DWIDTH 8 0
BBX 9 12 -1 0
BITMAP
0C00
1000
0000
0800
0800
1400
1400
2200
3E00
4100
4100
8080
ENDCHAR
STARTCHAR Edieresis
ENCODING 232
SWIDTH 500 0
DWIDTH 6 0
BBX 5 11 0 0
BITMAP
50
00
F8
80
80
80
F0
80
80
80
F8
ENDCHAR
STARTCHAR Egrave
ENCODING 233
SWIDTH 500 0
DWIDTH 6 0
BBX 5 12 0 0
BITMAP
60
10
00
F8
80
80
80
F0
80
80
80
F8
ENDCHAR
STARTCHAR Iacute
ENCODING 234
SWIDTH 166 0
DWIDTH 2 0
BBX 3 12 -1 0
BITMAP
60
80
00
40
40
40
40
40
40
40
40
40
ENDCHAR
STARTCHAR Icircumflex
ENCODING 235
SWIDTH 166 0
DWIDTH 2 0
BBX 4 12 -1 0
BITMAP
60
90
00
40
40
40
40
40
40
40
40
40
ENDCHAR
STARTCHAR Idieresis
ENCODING 236
SWIDTH 166 0
DWIDTH 2 0
BBX 3 11 -1 0
BITMAP
A0
00
40
40
40
40
40
40
40
40
40
ENDCHAR
STARTCHAR Igrave
ENCODING 237
SWIDTH 166 0
DWIDTH 2 0
BBX 3 12 -1 0
BITMAP
C0
20
00
40
40
40
40
40
40
40
40
40
ENDCHAR
STARTCHAR Oacute
ENCODING 238
SWIDTH 750 0
DWIDTH 9 0
BBX 8 12 0 0
BITMAP
0C
10
00
3C
42
81
81
81
81
81
42
3C
ENDCHAR
STARTCHAR Ocircumflex
ENCODING 239
SWIDTH 750 0
DWIDTH 9 0
BBX 8 12 0 0
BITMAP
18
24
00
3C
42
81
81
81
81
81
42
3C
ENDCHAR
STARTCHAR apple
ENCODING 240
SWIDTH 833 0
DWIDTH 10 0
BBX 9 10 0 0
BITMAP
0400
0C00
0800
7700
FF80
FE00
FE00
FF80
7F00
3600
ENDCHAR
STARTCHAR Ograve
ENCODING 241
SWIDTH 750 0
DWIDTH 9 0
BBX 8 12 0 0
BITMAP
30
08
00
3C
42
81
81
81
81
81
42
3C
ENDCHAR
STARTCHAR Uacute
ENCODING 242
SWIDTH 666 0
DWIDTH 8 0
BBX 7 12 0 0
BITMAP
0C
10
00
82
82
82
82
82
82
82
44
38
ENDCHAR
STARTCHAR Ucircumflex
ENCODING 243
SWIDTH 666 0
DWIDTH 8 0
BBX 7 12 0 0
BITMAP
18
24
00
82
82
82
82
82
82
82
44
38
ENDCHAR
STARTCHAR Ugrave
ENCODING 244
SWIDTH 666 0
DWIDTH 8 0
BBX 7 12 0 0
BITMAP
30
08
00
82
82
82
82
82
82
82
44
38
ENDCHAR
STARTCHAR dotlessi
ENCODING 245
SWIDTH 166 0
DWIDTH 2 0
BBX 1 7 0 0
BITMAP
80
80
80
80
80
80
80
ENDCHAR
STARTCHAR circumflex
ENCODING 246
SWIDTH 416 0
DWIDTH 5 0
BBX 4 2 0 7
BITMAP
60
90
ENDCHAR
STARTCHAR tilde
ENCODING 247
SWIDTH 500 0
DWIDTH 6 0
BBX 5 2 0 7
BITMAP
68
B0
ENDCHAR
STARTCHAR macron
ENCODING 248
SWIDTH 416 0
DWIDTH 5 0
BBX 4 1 0 8
BITMAP
F0
ENDCHAR
STARTCHAR breve
ENCODING 249
SWIDTH 416 0
DWIDTH 5 0
BBX 4 2 0 7
BITMAP
90
60
ENDCHAR
STARTCHAR dotaccent
ENCODING 250
SWIDTH 166 0
DWIDTH 2 0
BBX 1 1 0 8
BITMAP
80
ENDCHAR
STARTCHAR ring
ENCODING 251
SWIDTH 416 0
DWIDTH 5 0
BBX 4 3 0 6
BITMAP
60
90
60
ENDCHAR
STARTCHAR cedilla
ENCODING 252
SWIDTH 333 0
DWIDTH 4 0
BBX 3 3 0 -2
BITMAP
40
20
C0
ENDCHAR
STARTCHAR hungarumlaut
ENCODING 253
SWIDTH 416 0
DWIDTH 5 0
BBX 4 2 0 7
BITMAP
50
A0
ENDCHAR
STARTCHAR ogonek
ENCODING 254
SWIDTH 333 0
DWIDTH 4 0
BBX 3 3 0 -2
BITMAP
40
80
60
ENDCHAR
STARTCHAR caron
ENCODING 255
SWIDTH 333 0
DWIDTH 4 0
BBX 3 2 0 7
BITMAP
A0
40
ENDCHAR
ENDFONT
